# xmcd
#
# Track frame offsets:
#	150
#	13365
#	26590
#	39913
#	53088
#	66305
#	81110
#	94450
#	109203
#	138508
#	153635
#	183235
#	196343
#	210340
#
# Disc length: 3073
#
# Revision: 1
# Processed by: cddbd v1.5.1PL0 Copyright (c) Steve Scherf et al.
# Submitted via: CDex 1.51
# Normalized: r0:TDELIM( - )
#
DISCID=c10bff0e
DTITLE=Several - That's Bepop 2
DYEAR=1992
DGENRE=Jazz
TTITLE0=Dream Of You - Clyde Hart
TTITLE1=Salt Peanuts - Coleman Hawkins
TTITLE2=Bamby - Earl Hines
TTITLE3=Crown Pilots - Chubby Jackson
TTITLE4=Robbins Nest - Illinois Jacquet
TTITLE5=Birdhouse - Gene Krupa
TTITLE6=Bebop - Howard McGhee
TTITLE7=Sepian Bounce - Jay McShann
TTITLE8=Epistrophy - The Lonious Monk
TTITLE9=Body and Soul - The Lonious Monk
TTITLE10=Round Midnight - The Lonious Monk
TTITLE11=Good Bait - James Moody
TTITLE12=Allen's Alley - Fats Navarro
TTITLE13=Slam Slam Blues - Red Norvo
EXTD=YEAR: 1992
EXTT0=
EXTT1=
EXTT2=
EXTT3=
EXTT4=
EXTT5=
EXTT6=
EXTT7=
EXTT8=
EXTT9=
EXTT10=
EXTT11=
EXTT12=
EXTT13=
PLAYORDER=
